<svg width="70" height="70" xmlns="http://www.w3.org/2000/svg" viewBox="0 0 511.999 511.999"><path d="M229.947 272.01v-.025c0-8.829 7.157-15.986 15.986-15.986h22.88c8.829 0 15.986 7.157 15.986 15.986v.025c0 8.829-7.157 15.986-15.986 15.986h-22.88c-8.829.001-15.986-7.156-15.986-15.986z" fill="#878791"/><g fill="#f94f15"><path d="M128.562 227.826h-4c-28.717 0-51.996-23.279-51.996-51.996 0-28.717 23.279-51.996 51.996-51.996h4v103.992zM383.398 227.826h4c28.717 0 51.996-23.279 51.996-51.996 0-28.717-23.279-51.996-51.996-51.996h-4v103.992z"/></g><path d="M343.973 152.286v-31.478h-16.958s-.004-.001-.004-.003a72.286 72.286 0 00-9.66-23.345.024.024 0 01.003-.03l11.975-11.975-22.257-22.257-11.989 11.989a72.264 72.264 0 00-23.307-9.659.073.073 0 01-.057-.071V48.554h-31.478V65.53c0 .003-.002.006-.005.006a72.29 72.29 0 00-23.324 9.685l-12.024-12.024-22.257 22.257 12.045 12.045a72.25 72.25 0 00-9.632 23.289.024.024 0 01-.023.019h-17.034v31.478h17.072a72.284 72.284 0 009.652 23.273l-12.08 12.08 22.257 22.257 12.08-12.08a72.26 72.26 0 0023.273 9.651v17.072h31.478v-17.052a72.297 72.297 0 0023.308-9.636l12.045 12.045 22.257-22.257-12.024-12.024a72.259 72.259 0 009.679-23.298.04.04 0 01.039-.031h16.95v.001z" fill="#c8f5ff"/><circle cx="255.98" cy="136.549" r="27.998" fill="#ff5a5a"/><path fill="#1360ef" d="M9.999 323.864h93.423V501.98H9.999z"/><path d="M234.331 329.262l100.708 25.56c12.566 3.19 20.908 15.092 19.62 27.992-1.338 13.392-12.606 23.59-26.064 23.59h-70.283l22.686.07h49.589a55.176 55.176 0 0037.605-14.799l85.947-80.044c10.044-9.354 25.333-10.207 36.356-2.03 14.289 10.601 15.457 31.567 2.434 43.69L374.533 463.512a53.982 53.982 0 01-36.78 14.47H103.421v-119.99l82.692-27.089a86.5 86.5 0 0148.218-1.641z" fill="#fff"/><path d="M511.939 330.321a38.358 38.358 0 00-15.485-28.749c-14.892-11.05-35.555-9.898-49.128 2.742l-82.559 76.887c.503-16.916-10.616-31.846-27.269-36.071L236.67 319.539a96.377 96.377 0 00-53.548 1.751l-69.703 22.63v-20.057c0-5.522-4.478-9.999-9.999-9.999H9.999c-5.522 0-9.999 4.478-9.999 9.999V501.98c0 5.522 4.478 9.999 9.999 9.999h93.422c5.522 0 9.999-4.478 9.999-9.999V364.947l75.878-24.635a76.434 76.434 0 0142.453-1.39l100.829 25.591c7.831 1.988 12.933 9.266 12.13 17.308a16.144 16.144 0 01-16.114 14.585h-80.282c-5.522 0-9.999 4.478-9.999 9.999s4.478 9.999 9.999 9.999h31.542c.376.043.757.07 1.145.07h49.589c16.54 0 32.314-6.209 44.421-17.481l85.947-80.044c6.515-6.068 16.434-6.619 23.584-1.316a18.407 18.407 0 017.432 13.8 18.41 18.41 0 01-5.854 14.541l-118.4 110.22a43.85 43.85 0 01-29.968 11.789H182.796c-5.522 0-9.999 4.478-9.999 9.999s4.478 9.999 9.999 9.999h154.958c16.23 0 31.712-6.091 43.594-17.15l118.397-110.22a38.353 38.353 0 0012.194-30.29zM93.422 491.981H19.998V333.863h73.423v158.118z"/><path d="M142.439 467.983c-2.631 0-5.21 1.069-7.069 2.93-1.86 1.861-2.93 4.44-2.93 7.069s1.069 5.21 2.93 7.068a10.092 10.092 0 007.069 2.931c2.64 0 5.21-1.07 7.078-2.931 1.86-1.859 2.931-4.439 2.931-7.068s-1.07-5.21-2.931-7.069a10.07 10.07 0 00-7.078-2.93zM56.706 477.652c2.63 0 5.21-1.07 7.079-2.93a10.07 10.07 0 002.92-7.069c0-2.64-1.061-5.21-2.92-7.079-1.87-1.86-4.45-2.92-7.079-2.92s-5.21 1.06-7.069 2.92a10.116 10.116 0 00-2.93 7.079c0 2.63 1.069 5.2 2.93 7.069a10.09 10.09 0 007.069 2.93zM124.562 237.825h4c5.522 0 9.999-4.478 9.999-9.999V88.15c0-37.567 30.564-68.132 68.132-68.132h10.862c5.522 0 9.999-4.478 9.999-9.999S223.076.02 217.555.02h-10.862c-48.595 0-88.13 39.535-88.13 88.13v25.981c-31.379 3.028-55.996 29.54-55.996 61.7 0 34.183 27.812 61.994 61.995 61.994zm-5.999-103.564v83.138c-20.325-2.92-35.997-20.448-35.997-41.569s15.671-38.649 35.997-41.569zM255.98 20.018h.425c5.522 0 9.999-4.478 9.999-9.999S261.926.02 256.405.02h-.425c-5.522 0-9.999 4.478-9.999 9.999s4.477 9.999 9.999 9.999zM294.06 20.018h11.207c37.567 0 68.132 30.564 68.132 68.132v167.68a6.177 6.177 0 01-6.169 6.17H292.8c-3.922-9.386-13.195-16-23.986-16h-22.881c-14.328 0-25.985 11.657-25.985 25.985v.025c0 14.328 11.657 25.985 25.985 25.985h22.881c10.787 0 20.057-6.609 23.982-15.999h74.433c14.429 0 26.167-11.739 26.167-26.168v-18.3c31.379-3.028 55.996-29.54 55.996-61.7s-24.617-58.671-55.996-61.7V88.15c0-48.595-39.535-88.13-88.13-88.13h-11.207c-5.522 0-9.999 4.478-9.999 9.999s4.478 9.999 10 9.999zm-25.246 257.98h-22.881a5.993 5.993 0 01-5.987-5.987v-.025a5.993 5.993 0 015.987-5.987h22.881c3.302 0 5.987 2.686 5.987 6.013 0 3.3-2.685 5.986-5.987 5.986zm160.58-102.168c0 21.12-15.672 38.649-35.997 41.569v-83.138c20.326 2.92 35.997 20.449 35.997 41.569z"/><path d="M211.959 56.127c-3.905-3.903-10.234-3.904-14.142 0l-22.258 22.257a10 10 0 000 14.14l6.658 6.658a81.8 81.8 0 00-4.808 11.625h-9.423c-5.522 0-9.999 4.478-9.999 9.999v31.477c0 5.522 4.478 9.999 9.999 9.999h9.453a81.961 81.961 0 004.809 11.595l-6.688 6.687a10 10 0 000 14.14l22.258 22.258c3.906 3.904 10.235 3.904 14.142 0l6.687-6.688a81.869 81.869 0 0011.595 4.81v9.452c0 5.522 4.478 9.999 9.999 9.999h31.478c5.522 0 9.999-4.478 9.999-9.999v-9.423a81.804 81.804 0 0011.625-4.809l6.657 6.658c3.906 3.904 10.235 3.904 14.142 0l22.258-22.258a9.994 9.994 0 00-.001-14.14l-6.627-6.627a81.771 81.771 0 004.839-11.655h9.361c5.522 0 9.999-4.478 9.999-9.999v-31.477c0-5.522-4.478-9.999-9.999-9.999h-9.332a82.026 82.026 0 00-4.839-11.686l6.598-6.598a9.997 9.997 0 000-14.14l-22.258-22.257c-3.905-3.905-10.235-3.904-14.141 0l-6.599 6.597a82.057 82.057 0 00-11.685-4.838v-9.333c0-5.522-4.478-9.999-9.999-9.999H240.24c-5.522 0-9.999 4.478-9.999 9.999v9.362a82.004 82.004 0 00-11.655 4.839l-6.627-6.626zm30.269 19.21c4.569-.925 8.012-4.967 8.012-9.807v-6.977h11.479v6.903c0 4.641 3.249 8.741 7.766 9.805a62.127 62.127 0 0120.217 8.353 10.001 10.001 0 0012.449-1.358l4.92-4.919 8.116 8.116-4.905 4.905a10.045 10.045 0 00-1.345 12.507 62.154 62.154 0 018.269 19.914c.918 4.577 4.962 8.026 9.808 8.026h6.957v11.478h-6.949c-4.699 0-8.798 3.302-9.805 7.883a62.133 62.133 0 01-8.337 20.057 9.998 9.998 0 001.354 12.459l4.953 4.953-8.116 8.116-4.975-4.975a10 10 0 00-12.443-1.362 62.126 62.126 0 01-20.084 8.304 10 10 0 00-7.85 9.766v7.052H250.24v-7.071c0-4.689-3.259-8.748-7.837-9.763a62.16 62.16 0 01-20.054-8.317 9.997 9.997 0 00-12.451 1.357l-5.01 5.01-8.116-8.116 5.009-5.009a9.997 9.997 0 001.358-12.451 62.141 62.141 0 01-8.316-20.055 10 10 0 00-9.763-7.837h-7.072v-11.478h7.033a10.043 10.043 0 009.788-7.866 62.122 62.122 0 018.301-20.069 9.998 9.998 0 00-1.363-12.442l-4.975-4.975 8.116-8.116 4.953 4.954a10 10 0 0012.458 1.354 62.114 62.114 0 0119.929-8.309z"/><path d="M255.98 174.544c20.951 0 37.997-17.046 37.997-37.997S276.931 98.55 255.98 98.55s-37.997 17.046-37.997 37.997 17.046 37.997 37.997 37.997zm0-55.996c9.924 0 17.999 8.074 17.999 17.999 0 9.924-8.074 17.999-17.999 17.999-9.924 0-17.999-8.074-17.999-17.999 0-9.924 8.075-17.999 17.999-17.999zM56.711 440.985c5.522 0 9.999-4.478 9.999-9.999v-68.995c0-5.522-4.478-9.999-9.999-9.999s-9.999 4.478-9.999 9.999v68.995c-.001 5.522 4.476 9.999 9.999 9.999z"/></svg>