<svg width="70" height="70" viewBox="0 0 512 512" xmlns="http://www.w3.org/2000/svg"><path d="M42.668 8.535h221.867c18.848 0 34.133 15.281 34.133 34.133v426.664c0 18.852-15.285 34.133-34.133 34.133H42.668c-18.852 0-34.133-15.281-34.133-34.133V42.668c0-18.852 15.281-34.133 34.133-34.133zm0 0" fill="#37474f"/><path d="M42.668 8.535h196.266c18.851 0 34.132 15.281 34.132 34.133v426.664c0 18.852-15.28 34.133-34.132 34.133H42.668c-18.852 0-34.133-15.281-34.133-34.133V42.668c0-18.852 15.281-34.133 34.133-34.133zm0 0" fill="#f94f15"/><path d="M8.535 76.8h290.133v358.4H8.535zm0 0" fill="#9d9d9d"/><path d="M8.535 76.8h264.531v358.4H8.536zm0 0" fill="#fff"/><path d="M128 51.2h-8.535a8.532 8.532 0 01-8.531-8.532 8.533 8.533 0 018.53-8.535H128c4.71 0 8.535 3.82 8.535 8.535 0 4.71-3.824 8.531-8.535 8.531zm0 0M187.734 51.2h-25.601a8.532 8.532 0 01-8.531-8.532 8.533 8.533 0 018.53-8.535h25.602c4.711 0 8.532 3.82 8.532 8.535 0 4.71-3.82 8.531-8.532 8.531zm0 0M187.734 477.867h-68.27a8.533 8.533 0 01-8.53-8.535c0-4.71 3.82-8.531 8.53-8.531h68.27c4.711 0 8.532 3.82 8.532 8.531a8.533 8.533 0 01-8.532 8.535zm0 0" fill="#95a5a5"/><path d="M256 128v85.332a8.534 8.534 0 01-8.535 8.535h-13.567v-.683H64.77v.683h-5.036a8.534 8.534 0 01-8.535-8.535V128c0-4.71 3.82-8.535 8.535-8.535h187.73A8.536 8.536 0 01256 128zm0 0" fill="#00828e"/><path d="M230.398 128v85.332a8.533 8.533 0 01-8.53 8.535h-13.571v-.683H56.407a8.538 8.538 0 01-5.208-7.852V128c0-4.71 3.82-8.535 8.535-8.535h162.133c4.711 0 8.531 3.824 8.531 8.535zm0 0" fill="#00bbd3"/><path d="M170.668 273.066h76.797a8.534 8.534 0 018.535 8.536v85.332c0 4.71-3.82 8.53-8.535 8.53h-76.797a8.533 8.533 0 01-8.535-8.53v-85.332a8.534 8.534 0 018.535-8.536zm0 0" fill="#1360ef"/><path d="M183.465 221.867H64.77v-.683l44.03-44.118 14.934-14.933 34.985 35.074.855.766zm0 0" fill="#558a30"/><path d="M153.602 221.867H64.77v-.683l44.03-44.118 20.052 20.141.855.766zm0 0" fill="#8ac24a"/><path d="M233.898 221.184v.683h-50.433l-23.89-23.894-.856-.766 24.746-23.129zm0 0" fill="#2e7d32"/><path d="M213.332 145.066h273.066c9.426 0 17.067 7.641 17.067 17.067v324.265c0 9.426-7.64 17.067-17.067 17.067H213.332c-9.426 0-17.066-7.64-17.066-17.067V162.133c0-9.426 7.64-17.067 17.066-17.067zm0 0" fill="#1360ef"/><path d="M213.332 145.066h247.469c9.426 0 17.066 7.641 17.066 17.067v324.265c0 9.426-7.64 17.067-17.066 17.067H213.332c-9.426 0-17.066-7.64-17.066-17.067V162.133c0-9.426 7.64-17.067 17.066-17.067zm0 0" fill="#1360ef"/><path d="M238.934 264.535c4.71 0 8.53-3.824 8.53-8.535v-42.668h42.669a8.533 8.533 0 100-17.066h-42.668c-9.426 0-17.067 7.64-17.067 17.066V256c0 4.71 3.82 8.535 8.536 8.535zm0 0" fill="#14a085"/><path d="M279.102 232.898a8.534 8.534 0 00-12.066 12.066l17.066 17.067a8.54 8.54 0 006.03 2.504h.856a8.544 8.544 0 006.254-3.758l34.133-51.199a8.537 8.537 0 00-6.547-13.254 8.542 8.542 0 00-7.652 3.781l-28.356 42.547zm0 0M238.934 358.398c4.71 0 8.53-3.82 8.53-8.53v-42.669h42.669a8.533 8.533 0 100-17.066h-42.668c-9.426 0-17.067 7.64-17.067 17.066v42.668c0 4.711 3.82 8.531 8.536 8.531zm0 0" fill="#14a085"/><path d="M317.168 293.93l-28.355 42.547-9.711-9.711a8.534 8.534 0 00-12.066 12.066l17.066 17.066a8.52 8.52 0 006.03 2.5c.274 0 .556 0 .856-.043a8.528 8.528 0 006.254-3.753l34.133-51.2a8.537 8.537 0 00-6.547-13.254 8.542 8.542 0 00-7.652 3.782zm0 0M298.668 392.535a8.534 8.534 0 00-8.535-8.535h-42.668c-9.426 0-17.067 7.64-17.067 17.066v42.668c0 4.711 3.82 8.532 8.536 8.532 4.71 0 8.53-3.82 8.53-8.532v-42.668h42.669a8.533 8.533 0 008.535-8.53zm0 0" fill="#14a085"/><path d="M317.168 387.797l-28.355 42.547-9.711-9.711a8.534 8.534 0 00-12.066 12.066l17.066 17.067a8.52 8.52 0 006.03 2.5c.274 0 .556 0 .856-.043a8.528 8.528 0 006.254-3.754l34.133-51.2a8.537 8.537 0 00-6.547-13.254 8.542 8.542 0 00-7.652 3.782zm0 0" fill="#14a085"/><g fill="#3f5c6c"><path d="M366.934 221.867h59.734c4.71 0 8.531-3.82 8.531-8.535 0-4.71-3.82-8.531-8.531-8.531h-59.734a8.533 8.533 0 100 17.066zm0 0M460.8 221.867h8.532a8.534 8.534 0 100-17.066h-8.531a8.533 8.533 0 100 17.066zm0 0M401.066 247.465a8.534 8.534 0 008.536 8.535h34.132c4.711 0 8.532-3.82 8.532-8.535 0-4.711-3.82-8.531-8.532-8.531h-34.132a8.533 8.533 0 00-8.536 8.53zm0 0M366.934 256h8.53a8.534 8.534 0 100-17.066h-8.53a8.533 8.533 0 100 17.066zm0 0M366.934 315.734h59.734c4.71 0 8.531-3.82 8.531-8.535 0-4.71-3.82-8.531-8.531-8.531h-59.734a8.533 8.533 0 100 17.066zm0 0M469.332 298.668h-8.531a8.533 8.533 0 100 17.066h8.531a8.534 8.534 0 100-17.066zm0 0M443.734 332.8h-34.132a8.533 8.533 0 100 17.067h34.132c4.711 0 8.532-3.82 8.532-8.535 0-4.71-3.82-8.531-8.532-8.531zm0 0M366.934 349.867h8.53a8.534 8.534 0 100-17.066h-8.53a8.533 8.533 0 100 17.066zm0 0M366.934 409.602h59.734c4.71 0 8.531-3.82 8.531-8.536 0-4.71-3.82-8.53-8.531-8.53h-59.734a8.533 8.533 0 100 17.066zm0 0M469.332 392.535h-8.531a8.533 8.533 0 100 17.067h8.531a8.534 8.534 0 100-17.067zm0 0M443.734 426.668h-34.132a8.533 8.533 0 100 17.066h34.132c4.711 0 8.532-3.82 8.532-8.535 0-4.71-3.82-8.531-8.532-8.531zm0 0M375.465 426.668h-8.531a8.533 8.533 0 100 17.066h8.53a8.534 8.534 0 100-17.066zm0 0"/></g><path d="M486.398 136.535H307.2V42.668C307.172 19.113 288.086.028 264.535 0H42.668C19.113.027.028 19.113 0 42.668v426.664c.027 23.555 19.113 42.64 42.668 42.668h443.73C500.54 512 512 500.54 512 486.398V162.133c0-14.137-11.46-25.598-25.602-25.598zm-221.863 0V128c0-9.426-7.644-17.066-17.07-17.066H59.735c-9.426 0-17.067 7.64-17.067 17.066v85.332c0 9.426 7.64 17.066 17.066 17.066h128v34.137h-17.066c-9.426 0-17.066 7.64-17.066 17.067v85.332c0 9.425 7.64 17.066 17.066 17.066h17.066v42.668H17.066V85.332h273.067v51.203zm-51.203 0c-12.527.04-23.187 9.14-25.187 21.512L158.969 185.3l-29.196-29.192a8.532 8.532 0 00-12.082 0l-57.18 57.223h-.777V128h187.73v8.535zm-60.977 66.293c.06.059.067.145.125.207.063.059.188.11.266.188l10.121 10.109H84.641l39.093-39.148zm18.688-5.453l16.691-15.613v31.57H187zm16.691 169.559h-17.066v-85.332h17.066zM42.668 17.066h221.867c14.137 0 25.598 11.461 25.598 25.602v25.598H17.066V42.668c0-14.14 11.461-25.602 25.602-25.602zM17.066 469.332v-25.598h170.668v17.067h-76.8a8.533 8.533 0 100 17.066h76.8v8.531c.028 2.915.559 5.801 1.57 8.536H42.669c-6.79 0-13.3-2.7-18.102-7.5-4.8-4.801-7.5-11.313-7.5-18.102zm477.868 17.066a8.534 8.534 0 01-8.536 8.536H213.332a8.533 8.533 0 01-8.531-8.536V162.133c0-4.711 3.82-8.531 8.531-8.531h273.066a8.533 8.533 0 018.536 8.53zm0 0"/><path d="M238.934 264.535c4.71 0 8.53-3.824 8.53-8.535v-42.668h42.669a8.533 8.533 0 100-17.066h-42.668c-9.426 0-17.067 7.64-17.067 17.066V256c0 4.71 3.82 8.535 8.536 8.535zm0 0"/><path d="M317.168 200.04l-28.355 42.546-9.711-9.711a8.531 8.531 0 00-11.723.313 8.527 8.527 0 00-.344 11.718l17.067 17.067a8.554 8.554 0 006.03 2.562h.856a8.544 8.544 0 006.254-3.758l34.133-51.199a8.537 8.537 0 00-6.547-13.254 8.542 8.542 0 00-7.652 3.781zm0 0M238.934 358.398c4.71 0 8.53-3.82 8.53-8.53v-42.669h42.669a8.533 8.533 0 100-17.066h-42.668c-9.426 0-17.067 7.64-17.067 17.066v42.668c0 4.711 3.82 8.531 8.536 8.531zm0 0"/><path d="M317.168 293.906l-28.355 42.547-9.711-9.71a8.535 8.535 0 00-11.723.308 8.532 8.532 0 00-.344 11.722l17.067 17.067a8.533 8.533 0 006.03 2.558c.282 0 .556 0 .856-.043a8.528 8.528 0 006.254-3.753l34.133-51.2a8.537 8.537 0 00-6.547-13.254 8.542 8.542 0 00-7.652 3.782zm0 0M298.668 392.535a8.534 8.534 0 00-8.535-8.535h-42.668c-9.426 0-17.067 7.64-17.067 17.066v42.668c0 4.711 3.82 8.532 8.536 8.532 4.71 0 8.53-3.82 8.53-8.532v-42.668h42.669a8.533 8.533 0 008.535-8.53zm0 0"/><path d="M317.168 387.773l-28.355 42.547-9.711-9.71a8.535 8.535 0 00-11.723.308 8.532 8.532 0 00-.344 11.723l17.067 17.066a8.533 8.533 0 006.03 2.559c.282 0 .556 0 .856-.043a8.528 8.528 0 006.254-3.754l34.133-51.2a8.537 8.537 0 00-6.547-13.254 8.542 8.542 0 00-7.652 3.782zm0 0M366.934 221.867h59.734c4.71 0 8.531-3.82 8.531-8.535 0-4.71-3.82-8.531-8.531-8.531h-59.734a8.533 8.533 0 100 17.066zm0 0M469.332 204.8h-8.531a8.533 8.533 0 100 17.067h8.531a8.534 8.534 0 100-17.066zm0 0M401.066 247.465a8.534 8.534 0 008.536 8.535h34.132c4.711 0 8.532-3.82 8.532-8.535 0-4.711-3.82-8.531-8.532-8.531h-34.132a8.533 8.533 0 00-8.536 8.53zm0 0M366.934 256h8.53a8.534 8.534 0 100-17.066h-8.53a8.533 8.533 0 100 17.066zm0 0M366.934 315.734h59.734c4.71 0 8.531-3.82 8.531-8.535 0-4.71-3.82-8.531-8.531-8.531h-59.734a8.533 8.533 0 100 17.066zm0 0M469.332 298.668h-8.531a8.533 8.533 0 100 17.066h8.531a8.534 8.534 0 100-17.066zm0 0M443.734 332.8h-34.132a8.533 8.533 0 100 17.067h34.132c4.711 0 8.532-3.82 8.532-8.535 0-4.71-3.82-8.531-8.532-8.531zm0 0M366.934 349.867h8.53a8.534 8.534 0 100-17.066h-8.53a8.533 8.533 0 100 17.066zm0 0M366.934 409.602h59.734c4.71 0 8.531-3.82 8.531-8.536 0-4.71-3.82-8.53-8.531-8.53h-59.734a8.533 8.533 0 100 17.066zm0 0M469.332 392.535h-8.531a8.533 8.533 0 100 17.067h8.531a8.534 8.534 0 100-17.067zm0 0M443.734 426.668h-34.132a8.533 8.533 0 100 17.066h34.132c4.711 0 8.532-3.82 8.532-8.535 0-4.71-3.82-8.531-8.532-8.531zm0 0M375.465 426.668h-8.531a8.533 8.533 0 100 17.066h8.53a8.534 8.534 0 100-17.066zm0 0M119.465 51.2H128c4.71 0 8.535-3.821 8.535-8.532A8.536 8.536 0 00128 34.133h-8.535a8.533 8.533 0 00-8.531 8.535c0 4.71 3.82 8.531 8.53 8.531zm0 0M162.133 51.2h25.601c4.711 0 8.532-3.821 8.532-8.532a8.533 8.533 0 00-8.532-8.535h-25.601a8.533 8.533 0 00-8.531 8.535c0 4.71 3.82 8.531 8.53 8.531zm0 0M85.332 315.734H128c4.71 0 8.535-3.82 8.535-8.535 0-4.71-3.824-8.531-8.535-8.531H85.332a8.532 8.532 0 00-8.531 8.531 8.533 8.533 0 008.531 8.535zm0 0M55.895 300.09a4.89 4.89 0 00-1.454-.766 4.941 4.941 0 00-1.629-.504 6.664 6.664 0 00-3.234 0 4.927 4.927 0 00-1.621.504 6.611 6.611 0 00-1.543.766l-1.273 1.035a8.899 8.899 0 00-2.473 6.074 7.14 7.14 0 00.68 3.242 9.814 9.814 0 001.793 2.817l1.273 1.023c.477.324.996.582 1.543.77a5.132 5.132 0 001.621.511c.535.098 1.078.157 1.621.172a10.61 10.61 0 001.614-.171 5.209 5.209 0 001.628-.512 4.813 4.813 0 001.454-.77c.503-.332.937-.68 1.363-1.023a9.814 9.814 0 001.793-2.817 8.55 8.55 0 00.683-3.242 8.943 8.943 0 00-2.476-6.05c-.426-.376-.86-.715-1.363-1.06zm0 0M85.332 281.602H128c4.71 0 8.535-3.82 8.535-8.536 0-4.71-3.824-8.53-8.535-8.53H85.332a8.532 8.532 0 00-8.531 8.53 8.533 8.533 0 008.531 8.536zm0 0M43.348 276.309a9.814 9.814 0 001.793 2.816l1.273 1.023c.477.325.996.582 1.543.77a5.132 5.132 0 001.621.512c.535.097 1.078.156 1.621.172a10.61 10.61 0 001.614-.172 5.209 5.209 0 001.628-.512 4.9 4.9 0 001.454-.77c.503-.34.937-.683 1.363-1.023a9.814 9.814 0 001.793-2.816 8.55 8.55 0 00.683-3.243 8.988 8.988 0 00-2.476-6.058c-.426-.34-.852-.684-1.363-1.024a4.9 4.9 0 00-1.454-.77 5.313 5.313 0 00-1.629-.51 6.962 6.962 0 00-3.234 0 5.132 5.132 0 00-1.621.51 6.624 6.624 0 00-1.543.77l-1.273 1.024a8.922 8.922 0 00-2.473 6.058 7.14 7.14 0 00.68 3.243zm0 0M85.332 349.867H128c4.71 0 8.535-3.82 8.535-8.535 0-4.71-3.824-8.531-8.535-8.531H85.332a8.532 8.532 0 00-8.531 8.531 8.533 8.533 0 008.531 8.535zm0 0M55.895 334.25a4.89 4.89 0 00-1.454-.766 5.216 5.216 0 00-1.629-.515 6.962 6.962 0 00-3.234 0 5.14 5.14 0 00-1.621.515 6.612 6.612 0 00-1.543.766l-1.273 1.023a8.93 8.93 0 00-2.473 6.059 7.14 7.14 0 00.68 3.242 9.814 9.814 0 001.793 2.817l1.273 1.023c.477.324.996.582 1.543.77a5.035 5.035 0 001.621.511c.535.102 1.078.157 1.621.172.543-.015 1.082-.07 1.614-.172a5.109 5.109 0 001.628-.511 4.813 4.813 0 001.454-.77c.503-.34.937-.68 1.363-1.023a9.814 9.814 0 001.793-2.817 8.55 8.55 0 00.683-3.242 8.988 8.988 0 00-2.476-6.059c-.426-.34-.86-.68-1.363-1.023zm0 0M85.332 384H128c4.71 0 8.535-3.82 8.535-8.535 0-4.711-3.824-8.531-8.535-8.531H85.332a8.532 8.532 0 00-8.531 8.53A8.533 8.533 0 0085.332 384zm0 0M55.895 368.36a4.9 4.9 0 00-1.454-.77 4.941 4.941 0 00-1.629-.504 6.76 6.76 0 00-3.234 0 4.927 4.927 0 00-1.621.504 6.475 6.475 0 00-1.543.77l-1.273 1.03a8.899 8.899 0 00-2.473 6.075 7.166 7.166 0 00.68 3.246 9.848 9.848 0 001.793 2.812l1.273 1.028c.477.32.996.578 1.543.765a5.035 5.035 0 001.621.512c.535.102 1.078.156 1.621.172.543-.016 1.082-.07 1.614-.172a5.109 5.109 0 001.628-.512 4.89 4.89 0 001.454-.765c.503-.336.937-.684 1.363-1.028a9.848 9.848 0 001.793-2.812 8.585 8.585 0 00.683-3.246 8.934 8.934 0 00-2.476-6.047c-.426-.375-.86-.719-1.363-1.059zm0 0"/></svg>